<svg xmlns="http://www.w3.org/2000/svg" width="1024" height="1024" viewBox="0 0 1024 1024">
  <defs>
    <radialGradient id="red" cx="0.4" cy="0.35" r="0.9">
      <stop offset="0" stop-color="#f03540"/>
      <stop offset="0.7" stop-color="#d61f2b"/>
      <stop offset="1" stop-color="#a8121d"/>
    </radialGradient>
    <clipPath id="face"><circle cx="512" cy="512" r="446"/></clipPath>
  </defs>
  <!-- round face -->
  <circle cx="512" cy="512" r="446" fill="url(#red)"/>
  <!-- web pattern, radiating from between the eyes -->
  <g clip-path="url(#face)" stroke="#14090a" fill="none">
    <g stroke-width="9">
      <path d="M 512 470 L 512 -20"/>
      <path d="M 512 470 L 750 -60"/>
      <path d="M 512 470 L 274 -60"/>
      <path d="M 512 470 L 980 200"/>
      <path d="M 512 470 L 44 200"/>
      <path d="M 512 470 L 1030 470"/>
      <path d="M 512 470 L -6 470"/>
      <path d="M 512 470 L 960 780"/>
      <path d="M 512 470 L 64 780"/>
      <path d="M 512 470 L 700 1010"/>
      <path d="M 512 470 L 324 1010"/>
      <path d="M 512 470 L 512 1030"/>
    </g>
    <g stroke-width="8">
      <circle cx="512" cy="470" r="120"/>
      <circle cx="512" cy="470" r="230"/>
      <circle cx="512" cy="470" r="340"/>
      <circle cx="512" cy="470" r="450"/>
      <circle cx="512" cy="470" r="560"/>
    </g>
  </g>
  <!-- rim -->
  <circle cx="512" cy="512" r="446" fill="none" stroke="#14090a" stroke-width="14"/>
  <!-- eyes: big angular white teardrops -->
  <g>
    <path d="M 470 480 Q 452 372 348 322 Q 240 356 218 448 Q 226 550 340 588 Q 442 570 470 480 Z"
          fill="#f5f7fa" stroke="#14090a" stroke-width="26"/>
    <path d="M 554 480 Q 572 372 676 322 Q 784 356 806 448 Q 798 550 684 588 Q 582 570 554 480 Z"
          fill="#f5f7fa" stroke="#14090a" stroke-width="26"/>
  </g>
</svg>
